<svg width="11" height="13" viewBox="0 0 11 13" fill="none" xmlns="http://www.w3.org/2000/svg">
<path d="M1.22222 12.5C0.886111 12.5 0.598278 12.3826 0.358722 12.1478C0.119574 11.9126 0 11.63 0 11.3V2.9C0 2.57 0.119574 2.2876 0.358722 2.0528C0.598278 1.8176 0.886111 1.7 1.22222 1.7H1.83333V0.5H3.05556V1.7H7.94444V0.5H9.16667V1.7H9.77778C10.1139 1.7 10.4017 1.8176 10.6413 2.0528C10.8804 2.2876 11 2.57 11 2.9V11.3C11 11.63 10.8804 11.9126 10.6413 12.1478C10.4017 12.3826 10.1139 12.5 9.77778 12.5H1.22222ZM1.22222 11.3H9.77778V5.3H1.22222V11.3ZM1.22222 4.1H9.77778V2.9H1.22222V4.1Z" fill="#A3B3BF"/>
</svg>
