<svg width="20" height="20" viewBox="0 0 20 20" fill="none" xmlns="http://www.w3.org/2000/svg">
<path d="M16.3929 2H4.60714C3.71986 2.00067 3.00067 2.71666 3 3.6V16.4C3.00067 17.2833 3.71986 17.9993 4.60714 18H16.3929C17.2801 17.9993 17.9993 17.2833 18 16.4V3.6C17.9993 2.71666 17.2801 2.00067 16.3929 2ZM4.60714 16.9333C4.31115 16.9327 4.0721 16.6947 4.07143 16.4V3.6C4.0721 3.30533 4.31115 3.06733 4.60714 3.06667H8.35714V16.9333H4.60714ZM16.9286 16.4C16.9279 16.6947 16.6888 16.9327 16.3929 16.9333H9.42857V3.06667H16.3929C16.6888 3.06733 16.9279 3.30533 16.9286 3.6V16.4ZM7.54011 8.49131L6.02472 9.99997L7.54011 11.5086C7.74905 11.7166 7.74905 12.0546 7.54011 12.2626C7.33051 12.4713 6.99168 12.4713 6.78207 12.2626L4.8883 10.3773C4.78786 10.2773 4.73161 10.1413 4.73161 9.99995C4.73161 9.85862 4.78786 9.72262 4.8883 9.62262L6.78207 7.73658V7.73725C6.99168 7.52858 7.33051 7.52858 7.54011 7.73725C7.74905 7.94526 7.74905 8.2833 7.54011 8.49131Z" fill="#A3B3BF"/>
</svg>
