<svg width="20" height="20" viewBox="0 0 20 20" fill="none" xmlns="http://www.w3.org/2000/svg">
<path d="M16.0227 12.7327V15.3939C16.0227 15.4469 16.0152 15.4962 16.0038 15.5416C15.9508 15.8028 15.7199 15.9996 15.4473 15.9996H4.57161C4.28013 15.9996 4.03785 15.7763 4.00757 15.4924C4 15.4583 4 15.428 4 15.3902V12.729C4 12.4148 4.25741 12.1611 4.56782 12.1611C4.72303 12.1611 4.86688 12.2255 4.96909 12.3277C5.07129 12.4299 5.13565 12.5738 5.13565 12.729V14.8602H14.8909V12.729C14.8909 12.4148 15.1483 12.1611 15.4587 12.1611C15.6139 12.1611 15.7577 12.2255 15.86 12.3277C15.9584 12.4337 16.0227 12.5775 16.0227 12.7327Z" fill="#A3B3BF"/>
<path d="M13.2858 10.0681L10.4959 12.8581C10.4921 12.8656 10.4845 12.8694 10.4807 12.8732C10.3785 12.9754 10.246 13.0398 10.1135 13.0587C10.1022 13.0587 10.0908 13.0625 10.0795 13.0625C10.0568 13.0663 10.034 13.0663 10.0113 13.0663L9.94698 13.0625C9.93562 13.0625 9.92427 13.0587 9.91291 13.0587C9.77663 13.0398 9.64793 12.9754 9.54572 12.8732C9.54193 12.8694 9.53436 12.8618 9.53058 12.8581L6.74067 10.0681C6.61196 9.93944 6.54761 9.76909 6.54761 9.59874C6.54761 9.4284 6.61196 9.25805 6.74067 9.12934C6.99808 8.87193 7.41827 8.87193 7.67947 9.12934L9.35644 10.8063V4.66246C9.35644 4.29905 9.6555 4 10.0189 4C10.2006 4 10.3672 4.07571 10.4883 4.19306C10.6094 4.3142 10.6814 4.47697 10.6814 4.66246V10.8063L12.3583 9.12934C12.6158 8.87193 13.0359 8.87193 13.2971 9.12934C13.5432 9.39054 13.5432 9.81073 13.2858 10.0681Z" fill="#A3B3BF"/>
</svg>
