<svg width="20" height="20" viewBox="0 0 20 20" fill="none" xmlns="http://www.w3.org/2000/svg">
<path fill-rule="evenodd" clip-rule="evenodd" d="M6.06234 4.00002C4.92324 4.00002 4 4.92326 4 6.06236V13.9377C4 15.0768 4.92324 16 6.06234 16H13.9377C15.0768 16 16 15.0768 16 13.9377V12.4062C16 12.0954 15.7483 11.8437 15.4375 11.8437C15.1274 11.8437 14.875 12.0954 14.875 12.4062V13.9377C14.875 14.4552 14.4552 14.875 13.9377 14.875H6.06234C5.54482 14.875 5.12504 14.4552 5.12504 13.9377V6.06236C5.12504 5.54484 5.54482 5.12506 6.06234 5.12506H7.59381C7.90461 5.12506 8.15633 4.87264 8.15633 4.56254C8.15633 4.25174 7.90461 4.00002 7.59381 4.00002H6.06234ZM10.7503 4.00002C10.4395 4.00002 10.1877 4.25174 10.1877 4.56254C10.1877 4.87264 10.4395 5.12506 10.7503 5.12506H14.0797L9.602 9.60201C9.38261 9.82211 9.38261 10.1779 9.602 10.398C9.8221 10.6174 10.1779 10.6174 10.398 10.398L14.8749 5.92031V9.24972C14.8749 9.56052 15.1274 9.81224 15.4375 9.81224C15.7483 9.81224 16 9.56052 16 9.24972V4.56252C16 4.25172 15.7483 4 15.4375 4L10.7503 4.00002Z" fill="#A3B3BF"/>
</svg>
